<?xml version="1.0" encoding="UTF-8"?>
<svg version="1.1" xmlns="http://www.w3.org/2000/svg" width="1024" height="1024">
<path d="M0 0 C337.92 0 675.84 0 1024 0 C1024 337.92 1024 675.84 1024 1024 C686.08 1024 348.16 1024 0 1024 C0 686.08 0 348.16 0 0 Z " fill="#FBFAFB" transform="translate(0,0)"/>
<path d="M0 0 C1.18856623 -0.00175304 2.37713247 -0.00350607 3.60171586 -0.00531223 C6.90727746 -0.00916837 10.21278355 -0.00854079 13.51834284 -0.00603446 C17.11221735 -0.00440196 20.70608595 -0.00854175 24.29995859 -0.01194364 C30.60101154 -0.01709999 36.9020568 -0.01851443 43.20311165 -0.01748753 C52.57321476 -0.01596417 61.94330936 -0.02012089 71.31341081 -0.02536215 C89.02209203 -0.0350407 106.73077036 -0.03784659 124.43945391 -0.03841921 C138.11483931 -0.03887852 151.79022357 -0.04093566 165.4656086 -0.04411983 C169.40022576 -0.04501736 173.33484292 -0.04590718 177.26946008 -0.04679471 C178.2475873 -0.04701576 179.22571453 -0.04723681 180.23348197 -0.04746456 C207.75271569 -0.05362018 235.27194903 -0.05756498 262.79118347 -0.05712128 C263.82905266 -0.0571057 264.86692184 -0.05709012 265.93624161 -0.05707407 C271.19673869 -0.05699096 276.45723578 -0.05689192 281.71773286 -0.05678936 C283.28489572 -0.05675944 283.28489572 -0.05675944 284.88371843 -0.05672892 C286.99651005 -0.05668848 289.10930167 -0.05664669 291.22209328 -0.05660353 C324.09119901 -0.05599082 356.96029442 -0.06349594 389.8293972 -0.07717609 C426.74815398 -0.09253535 463.66690398 -0.1011424 500.58566415 -0.10021287 C504.52216744 -0.10013824 508.45867073 -0.10008953 512.39517403 -0.10005856 C513.36445759 -0.1000469 514.33374114 -0.10003525 515.33239693 -0.10002324 C530.93416073 -0.09999246 546.53591557 -0.10637978 562.13767671 -0.11499082 C577.81782006 -0.12346613 593.49795032 -0.12445822 609.1780947 -0.1178815 C618.49378301 -0.11418492 627.80943153 -0.11602143 637.12511562 -0.12582384 C643.34979588 -0.13182036 649.5744473 -0.130532 655.79912623 -0.12335334 C659.34445364 -0.11946906 662.88970401 -0.11870419 666.435026 -0.12681069 C670.25959835 -0.13547895 674.08405535 -0.12858314 677.90863037 -0.12025452 C679.00164162 -0.1252227 680.09465287 -0.13019088 681.22078568 -0.13530961 C703.99663576 -0.03042938 723.19363199 7.60410626 739.67168236 23.3669157 C756.81036441 41.26731695 761.82242561 64.20649295 761.71278954 88.23138714 C761.7162544 89.90688923 761.72102449 91.58238903 761.72697127 93.25788414 C761.73939736 97.82027568 761.73334946 102.38247693 761.72401261 106.9448688 C761.71718766 111.88159434 761.72772041 116.81828856 761.73595238 121.75500774 C761.7492559 131.41013483 761.7464269 141.06519174 761.73771445 150.72032152 C761.73092419 158.57213118 761.73002699 166.42392124 761.7332859 174.27573299 C761.7337456 175.39558902 761.7342053 176.51544504 761.73467893 177.6692361 C761.73563816 179.94461766 761.73661081 182.21999922 761.73759671 184.49538077 C761.7461409 205.80641798 761.73633211 227.11741641 761.72019561 248.42844726 C761.706797 266.68839236 761.70911865 284.94828023 761.72295189 303.2082243 C761.7390312 324.44276086 761.74531316 345.67726347 761.7361151 366.91180527 C761.73515951 369.17917164 761.7342164 371.44653801 761.7332859 373.71390438 C761.73282308 374.82931623 761.73236025 375.94472807 761.7318834 377.09394028 C761.72930029 384.92935444 761.73364991 392.76474694 761.74072456 400.60015774 C761.74916608 410.15904731 761.74680404 419.71786304 761.73088233 429.27674423 C761.72303463 434.14773675 761.71984778 439.01860647 761.72982979 443.88959789 C761.73885054 448.35936253 761.73372399 452.82889195 761.71789713 457.29863562 C761.71458022 458.90480246 761.71617255 460.5109897 761.7235245 462.11714314 C761.7815921 475.87156044 761.1181053 490.57489909 754.64433861 503.00363445 C754.11997215 504.05575115 754.11997215 504.05575115 753.58501244 505.12912273 C746.03134212 519.86394431 734.92937502 532.16997761 720.33183861 540.12863445 C718.88937767 540.92914227 718.88937767 540.92914227 717.41777611 541.74582195 C700.89902311 550.15156715 683.14421988 550.72132376 664.96977806 550.67453289 C662.6911353 550.68328922 660.41249866 550.69378209 658.13387108 550.70585918 C652.00910863 550.73348742 645.88454911 550.73712903 639.75973344 550.7361393 C633.33622886 550.73928849 626.91281302 550.76494811 620.48935509 550.78811932 C609.72777515 550.82395222 598.96626884 550.84614589 588.20464134 550.85763836 C577.13038792 550.86950271 566.05620124 550.88976806 554.98198509 550.92111492 C554.29698086 550.92305102 553.61197663 550.92498712 552.90621469 550.9269819 C549.46903589 550.93674788 546.03185758 550.94667673 542.59467947 550.9566865 C514.17376544 551.03924408 485.75284769 551.09310061 457.33183861 551.12863445 C457.85616478 551.63201336 458.38049095 552.13539227 458.9207058 552.65402508 C461.31850178 554.96804137 463.70013059 557.29806741 466.08183861 559.62863445 C466.90683861 560.42011883 467.73183861 561.2116032 468.58183861 562.02707195 C475.87581861 569.20340712 479.89063711 575.51061197 480.58183861 585.87863445 C480.32065482 596.44874834 475.07703177 602.25177926 467.78667259 609.43429852 C466.79629011 610.43118467 465.80719352 611.42934971 464.81928062 612.42868328 C462.1466959 615.12423902 459.45571071 617.80067824 456.76020503 620.47328949 C453.93150135 623.28298792 451.11795398 626.10779732 448.30206871 628.93033123 C443.57050377 633.66822613 438.82681555 638.39371324 434.07573509 643.11203289 C428.59867526 648.55163495 423.14147977 654.01056164 417.69451851 659.48029065 C412.4366624 664.75916776 407.16470011 670.023741 401.88636017 675.28213024 C399.64871029 677.5118351 397.41606805 679.74637854 395.18742752 681.98508739 C392.55659664 684.62654529 389.91355359 687.25516958 387.26098251 689.87478924 C385.83768279 691.28609484 384.42646333 692.70955159 383.01576805 694.13345623 C376.71302686 700.32328204 370.46330273 705.26983432 361.57402611 706.7575407 C360.46285423 706.73562664 359.35168236 706.71371258 358.20683861 706.69113445 C356.53234642 706.69306805 356.53234642 706.69306805 354.82402611 706.6950407 C346.01081244 705.26560448 340.72055721 700.06432535 334.73808861 693.8903532 C333.94712791 693.09136105 333.15616722 692.29236889 332.34123802 691.46916485 C329.82841167 688.92749907 327.32964117 686.37255842 324.83183861 683.81613445 C322.33150371 681.27305672 319.82827626 678.73289516 317.32243919 676.19523907 C315.76926474 674.62065754 314.21963332 673.04257009 312.67424583 671.46034527 C308.63664665 667.34934502 304.51251885 663.43172291 300.12761497 659.69194317 C295.84713642 655.96558305 291.96923209 651.9161979 288.33183861 647.56613445 C284.99055563 643.69213458 281.32379852 640.27905828 277.56206322 636.8254118 C269.39216046 629.25890238 261.50584747 621.43109743 253.64824486 613.54269695 C252.21258882 612.10516904 250.77670681 610.66786678 249.34061241 609.23077679 C245.61494846 605.5013481 241.89230052 601.76892379 238.17033958 598.03579998 C234.35039005 594.20550411 230.52750327 590.3781421 226.70488548 586.55050945 C219.24437591 579.07936958 211.7870591 571.60505189 204.33183861 564.12863445 C203.21371112 565.07953007 202.09664817 566.03167752 200.98003197 566.98434734 C200.35785286 567.51443905 199.73567375 568.04453075 199.09464073 568.59068584 C196.18033162 571.13326143 193.52726403 573.91399307 190.83574486 576.6872282 C188.80933486 578.66305698 186.75553508 580.51058531 184.61308861 582.35519695 C179.96128507 586.39290818 175.61234538 590.70102587 171.26933861 595.06613445 C170.50556908 595.8260368 169.74179955 596.58593914 168.95488548 597.36886883 C165.55761524 600.77195134 162.23270166 604.18695462 159.11308861 607.84738445 C154.26949372 613.46979986 148.96121354 618.64813688 143.70757103 623.88327312 C141.89822928 625.6872553 140.09429542 627.4965211 138.29082298 629.30636883 C137.11861739 630.4779135 135.94610156 631.64914787 134.77324486 632.8200407 C134.24590248 633.34940731 133.7185601 633.87877392 133.17523766 634.42418194 C130.42729469 637.15538236 127.62265618 639.76184579 124.67803001 642.28024578 C118.95972883 647.23698588 113.6860683 652.65075914 108.35136986 658.01144695 C107.20914967 659.15553728 106.06670475 660.29940328 104.92404747 661.44305706 C101.93671689 664.43417736 98.95239992 667.42828637 95.96874046 670.42306805 C92.93599358 673.46606241 89.90040338 676.50621743 86.86504173 679.5466032 C81.52557096 684.89560303 76.18857369 690.24705969 70.85339928 695.60034466 C70.02128426 696.43468029 69.18916924 697.26901592 68.33183861 698.12863445 C67.03164032 699.47186275 67.03164032 699.47186275 65.7051754 700.84222698 C61.49213357 704.90095575 57.21183235 706.29837492 51.45683861 706.44113445 C37.21541478 705.90168658 30.12247613 699.23837548 20.38066673 689.38864422 C19.52428108 688.53094433 18.66789543 687.67324444 17.7855587 686.78955364 C15.45761146 684.45626059 13.13412765 682.11863112 10.81245041 679.77910256 C8.36846665 677.3187621 5.91829721 674.86459798 3.46867943 672.40986919 C-1.16838205 667.76146652 -5.80074245 663.10841185 -10.4310298 658.45326227 C-18.71414054 650.12574289 -27.00284729 641.80380308 -35.29688311 633.48716491 C-37.72788078 631.04918041 -40.15758907 628.60993717 -42.5844059 626.16779041 C-45.29308942 623.44235585 -48.00477821 620.71994246 -50.71698952 617.99801922 C-51.50787468 617.20039669 -52.29875984 616.40277416 -53.11361122 615.58098125 C-57.28716655 611.39897249 -61.54191616 607.3979271 -66.04974556 603.57695198 C-70.65526447 599.45548108 -72.39698191 594.42046107 -73.10956764 588.3981657 C-73.40631072 578.70136756 -71.58587029 573.21646122 -65.16425514 566.11300945 C-63.8188516 564.69443746 -62.46567288 563.28320768 -61.10566139 561.87863445 C-60.04472267 560.76754314 -60.04472267 560.76754314 -58.96235085 559.63400555 C-53.28586706 553.70976683 -47.51763275 547.88186222 -41.66816139 542.12863445 C-40.66707147 541.12972556 -39.66654458 540.13024865 -38.66816139 539.12863445 C-39.25081764 538.82312664 -39.83347389 538.51761883 -40.43378639 538.2028532 C-59.12970181 527.76724004 -71.69535371 510.60138564 -77.5246067 490.12375164 C-80.49233945 479.06321849 -80.81740813 468.51749159 -80.81533241 457.14686871 C-80.81863508 455.5077092 -80.82236149 453.8685505 -80.82647389 452.22939283 C-80.83645626 447.73492009 -80.8402046 443.24046072 -80.8428632 438.74597847 C-80.84677747 433.89430721 -80.85635502 429.04264642 -80.86507607 424.19098186 C-80.884809 412.47888474 -80.89490274 400.7667868 -80.90380386 389.05467722 C-80.90819203 383.53272681 -80.91355747 378.01077736 -80.91879272 372.48882771 C-80.93580197 354.12141875 -80.95029472 335.75401039 -80.95754147 317.38659477 C-80.95945121 312.62360604 -80.96137156 307.86061731 -80.96332741 303.09762859 C-80.96381115 301.91388121 -80.96429489 300.73013383 -80.96479329 299.51051531 C-80.97308834 280.34734551 -80.99841777 261.18423823 -81.03090809 242.02109572 C-81.06402718 222.32576332 -81.08199461 202.63046266 -81.08518571 182.93510228 C-81.08734633 171.88541427 -81.09602928 160.83581744 -81.12164688 149.78615665 C-81.14342022 140.37317688 -81.15137178 130.96031045 -81.1416801 121.54730835 C-81.13715455 116.75100418 -81.13891921 111.95493354 -81.15844154 107.15866184 C-81.33111384 62.23739435 -81.33111384 62.23739435 -71.66816139 43.12863445 C-71.18863014 42.15925945 -70.70909889 41.18988445 -70.21503639 40.19113445 C-60.25767151 21.62983293 -43.76097608 9.13132499 -23.79316139 2.81613445 C-15.74537732 0.42600309 -8.34678755 -0.0154963 0 0 Z " fill="#EB3128" transform="translate(171.6681613922119,169.87136554718018)"/>
<path d="M0 0 C1.1240625 -0.06058594 2.248125 -0.12117188 3.40625 -0.18359375 C13.54881308 0.5743727 21.92924625 7.99231515 28.67749023 14.93383789 C29.51001816 15.76548965 30.34254608 16.59714142 31.20030212 17.45399475 C33.91755539 20.17538941 36.61298558 22.91733482 39.30859375 25.66015625 C41.20460207 27.57074079 43.10516737 29.47676728 45.00563049 31.38291931 C49.4774089 35.87324829 53.93369847 40.37862 58.38442236 44.88980812 C63.43733833 50.00987734 68.50736198 55.11286012 73.57890785 60.21446621 C82.25042497 68.93795047 90.90924038 77.67389983 99.55352783 86.42437744 C106.0070025 92.99659412 106.0070025 92.99659412 112.59765625 99.4296875 C119.8296135 106.35971413 123.55671039 112.40171644 123.875 122.5625 C123.62519483 136.61404059 114.03527617 145.16490606 104.5 154.4375 C102.66310542 156.11960937 100.820608 157.79561071 98.97406006 159.46711731 C92.76157493 165.13081548 86.78929578 171.01289592 80.85644531 176.9675293 C79.75145633 178.07280133 78.64624518 179.17785128 77.54083252 180.28269958 C74.58071818 183.24253053 71.62366682 186.2054036 68.66721439 189.16889167 C65.56208612 192.28033067 62.45406849 195.38888095 59.34637451 198.49775696 C53.47987484 204.36734742 47.61592581 210.23947905 41.75292087 216.11256009 C35.07036886 222.80634373 28.3849296 229.4972406 21.6992631 236.1879133 C7.96299211 249.93459759 -5.76970354 263.68484843 -19.5 277.4375 C-14.25440211 283.79399606 -8.49207441 289.58701814 -2.66455078 295.40234375 C-1.5730051 296.4952466 -0.4816718 297.58836161 0.60946655 298.68167114 C3.55763859 301.63438044 6.50893913 304.58394365 9.46096945 307.53279495 C12.56037235 310.6296544 15.65732131 313.72896633 18.75466919 316.82788086 C23.95623134 322.03125919 29.15989104 327.23253284 34.36474609 332.43261719 C40.367348 338.4297804 46.36634301 344.43053351 52.36347187 350.43316936 C57.5270081 355.60125585 62.69250592 360.76737566 67.85962307 365.9318819 C70.93931845 369.01002465 74.01834947 372.08882377 77.09560776 375.16940308 C79.99078596 378.06748774 82.88843357 380.96308128 85.78793716 383.85683823 C86.84651135 384.9140995 87.90425291 385.97219526 88.96105957 387.0312233 C94.10667877 392.18665331 99.27595088 397.26622855 104.82112312 401.99609375 C122.36182296 417.05572958 122.36182296 417.05572958 123.5 428.4375 C123.98407816 435.69867244 123.1901547 441.9559564 118.62325859 447.86634064 C116.13816421 450.57190108 113.57181448 453.16489428 110.95483398 455.74316406 C109.9644515 456.74005021 108.97535491 457.73821526 107.98744202 458.73754883 C105.31485729 461.43310457 102.6238721 464.10954379 99.92836642 466.78215504 C97.09966274 469.59185346 94.28611537 472.41666287 91.4702301 475.23919678 C86.73866516 479.97709167 81.99497694 484.70257878 77.24389648 489.42089844 C71.76683666 494.86050049 66.30964116 500.31942719 60.8626799 505.7891562 C55.6048238 511.06803331 50.3328615 516.33260655 45.05452156 521.59099579 C42.81687168 523.82070065 40.58422945 526.05524408 38.35558891 528.29395294 C35.72475803 530.93541083 33.08171498 533.56403513 30.42914391 536.18365479 C29.00584419 537.59496039 27.59462472 539.01841713 26.18392944 540.44232178 C19.88118826 546.63214759 13.63146413 551.57869987 4.7421875 553.06640625 C3.63101562 553.04449219 2.51984375 553.02257812 1.375 553 C-0.29949219 553.00193359 -0.29949219 553.00193359 -2.0078125 553.00390625 C-10.82102617 551.57447003 -16.1112814 546.3731909 -22.09375 540.19921875 C-22.88471069 539.40022659 -23.67567139 538.60123444 -24.49060059 537.7780304 C-27.00342694 535.23636462 -29.50219744 532.68142396 -32 530.125 C-34.5003349 527.58192227 -37.00356235 525.0417607 -39.50939941 522.50410461 C-41.06257387 520.92952309 -42.61220529 519.35143564 -44.15759277 517.76921082 C-48.19519195 513.65821057 -52.31931976 509.74058846 -56.70422363 506.00080872 C-60.98470219 502.2744486 -64.86260652 498.22506345 -68.5 493.875 C-71.84128298 490.00100013 -75.50804008 486.58792383 -79.26977539 483.13427734 C-87.43967815 475.56776793 -95.32599114 467.73996298 -103.18359375 459.8515625 C-104.61924979 458.41403459 -106.0551318 456.97673233 -107.4912262 455.53964233 C-111.21689015 451.81021364 -114.93953808 448.07778933 -118.66149902 444.34466553 C-122.48144856 440.51436966 -126.30433534 436.68700764 -130.12695312 432.859375 C-137.5874627 425.38823513 -145.04477951 417.91391744 -152.5 410.4375 C-153.61812749 411.38839561 -154.73519044 412.34054306 -155.85180664 413.29321289 C-156.47398575 413.8233046 -157.09616486 414.3533963 -157.73719788 414.89955139 C-160.65150699 417.44212698 -163.30457457 420.22285862 -165.99609375 422.99609375 C-168.02250374 424.97192253 -170.07630353 426.81945086 -172.21875 428.6640625 C-176.87055354 432.70177372 -181.21949323 437.00989141 -185.5625 441.375 C-186.32626953 442.13490234 -187.09003906 442.89480469 -187.87695312 443.67773438 C-191.27422337 447.08081688 -194.59913695 450.49582017 -197.71875 454.15625 C-202.56234488 459.7786654 -207.87062507 464.95700242 -213.12426758 470.19213867 C-214.93360933 471.99612085 -216.73754319 473.80538665 -218.54101562 475.61523438 C-219.71322122 476.78677905 -220.88573704 477.95801342 -222.05859375 479.12890625 C-222.58593613 479.65827286 -223.1132785 480.18763947 -223.65660095 480.73304749 C-226.40454391 483.46424791 -229.20918243 486.07071134 -232.15380859 488.58911133 C-237.87210978 493.54585143 -243.14577031 498.95962468 -248.48046875 504.3203125 C-249.62268893 505.46440283 -250.76513386 506.60826883 -251.90779114 507.75192261 C-254.89512171 510.74304291 -257.87943868 513.73715192 -260.86309814 516.73193359 C-263.89584503 519.77492796 -266.93143523 522.81508297 -269.96679688 525.85546875 C-275.30626764 531.20446858 -280.64326491 536.55592524 -285.97843933 541.90921021 C-286.81055435 542.74354584 -287.64266937 543.57788147 -288.5 544.4375 C-289.80019829 545.7807283 -289.80019829 545.7807283 -291.12666321 547.15109253 C-295.33970504 551.2098213 -299.62000625 552.60724047 -305.375 552.75 C-319.61642383 552.21055213 -326.70936248 545.54724103 -336.45117188 535.69750977 C-337.30755753 534.83980988 -338.16394318 533.98210999 -339.04627991 533.09841919 C-341.37422715 530.76512613 -343.69771096 528.42749667 -346.0193882 526.08796811 C-348.46337196 523.62762764 -350.9135414 521.17346353 -353.36315918 518.71873474 C-358.00022065 514.07033206 -362.63258106 509.4172774 -367.2628684 504.76212782 C-375.54597915 496.43460844 -383.8346859 488.11266862 -392.12872171 479.79603046 C-394.55971939 477.35804595 -396.98942768 474.91880272 -399.41624451 472.47665596 C-402.12492803 469.7512214 -404.83661682 467.028808 -407.54882812 464.30688477 C-408.33971329 463.50926224 -409.13059845 462.71163971 -409.94544983 461.8898468 C-414.11900516 457.70783804 -418.37375477 453.70679265 -422.88158417 449.88581753 C-427.48710308 445.76434663 -429.22882052 440.72932662 -429.94140625 434.70703125 C-430.23814933 425.01023311 -428.4177089 419.52532677 -421.99609375 412.421875 C-420.65079563 411.00320302 -419.29760433 409.59198332 -417.9375 408.1875 C-417.22658203 407.44387207 -416.51566406 406.70024414 -415.78320312 405.93408203 C-413.69778024 403.7596472 -411.60160131 401.59629124 -409.5 399.4375 C-408.94199707 398.86290039 -408.38399414 398.28830078 -407.80908203 397.69628906 C-403.65638247 393.43581358 -399.48522855 389.26724076 -394.96166992 385.40136719 C-389.91530952 380.99519694 -385.20978768 376.2725233 -380.48828125 371.5234375 C-379.55702927 370.59077057 -378.62577728 369.65810364 -377.66630554 368.69717407 C-375.21162325 366.23871051 -372.75995694 363.77726148 -370.30895996 361.31512451 C-367.81912577 358.81503364 -365.32644083 356.31778865 -362.83398438 353.8203125 C-359.18376441 350.16217593 -355.53506162 346.50253389 -351.88793945 342.84130859 C-351.11753326 342.07050964 -350.34712708 341.29971069 -349.55337524 340.5055542 C-348.31351807 339.25683366 -347.08136638 338.00030019 -345.86434937 336.72930908 C-344.77731172 335.59793842 -343.64481191 334.51037282 -342.5 333.4375 C-341.84 333.4375 -341.18 333.4375 -340.5 333.4375 C-340.25289276 332.86507568 -340.00578552 332.29265137 -339.75119019 331.70288086 C-338.29853916 329.07273888 -336.61224847 327.30972443 -334.48095703 325.19140625 C-333.65314728 324.36374756 -332.82533752 323.53608887 -331.97244263 322.68334961 C-331.07661469 321.79784424 -330.18078674 320.91233887 -329.2578125 320 C-328.3378952 319.0829126 -327.41797791 318.1658252 -326.47018433 317.22094727 C-324.0265923 314.78497718 -321.57706022 312.35506694 -319.1262207 309.9263916 C-316.64176326 307.4623383 -314.16289813 304.9926738 -311.68359375 302.5234375 C-307.31419664 298.17315915 -302.93991164 293.82783643 -298.56204224 289.48608398 C-297.13755526 288.07089415 -295.73731761 286.63102375 -294.3576355 285.17211914 C-292.5 283.4375 -292.5 283.4375 -290.5 283.4375 C-290.21125 282.839375 -289.9225 282.24125 -289.625 281.625 C-288.5 279.4375 -288.5 279.4375 -286.5 276.4375 C-302.0048314 260.90927986 -317.51254656 245.38394493 -333.02367401 229.86201382 C-340.2261313 222.65440626 -347.42765173 215.44586735 -354.62695312 208.23510742 C-360.90386326 201.94821164 -367.18254545 195.66309189 -373.46333742 189.38007408 C-376.78706705 186.05504393 -380.10991923 182.7291477 -383.4306488 179.40112114 C-386.56057528 176.26437318 -389.692878 173.13001745 -392.82696533 169.99742699 C-393.97262576 168.85149298 -395.11743898 167.70471118 -396.26130676 166.55698776 C-402.16476071 160.63462401 -408.11568728 154.84748857 -414.5 149.4375 C-421.91503685 142.81009984 -427.79431581 136.74455242 -428.9375 126.52734375 C-429.34803522 116.88144406 -427.94818971 110.16385688 -421.5390625 102.8671875 C-420.41106322 101.67274739 -419.27257044 100.48814946 -418.125 99.3125 C-417.2122229 98.35525024 -417.2122229 98.35525024 -416.28100586 97.37866211 C-411.40092544 92.28812 -406.42362332 87.28879906 -401.38330078 82.35693359 C-398.6617098 79.67938394 -396.07041069 76.96340556 -393.60766602 74.04516602 C-388.78643453 68.51183684 -383.56137189 63.38737472 -378.35654831 58.21888351 C-376.48710252 56.36235356 -374.62093204 54.50258444 -372.75552368 52.64199829 C-368.79817038 48.69599456 -364.83688102 44.7539571 -360.875 40.8125 C-356.27288192 36.23406038 -351.67243422 31.65396756 -347.07619095 27.06962967 C-345.24534132 25.2452203 -343.41148713 23.42386917 -341.57748413 21.60263062 C-340.44782883 20.47661011 -339.31831496 19.35044769 -338.18896484 18.22412109 C-337.68494644 17.72526901 -337.18092804 17.22641693 -336.66163635 16.71244812 C-333.38607164 13.43736815 -330.44301363 10.00540145 -327.5 6.4375 C-321.42327059 1.04988423 -314.60268504 0.82582927 -306.85546875 0.67578125 C-294.04873926 2.13460188 -285.25665229 11.84529509 -276.74511719 20.51123047 C-275.41460533 21.84343794 -274.08276459 23.17431934 -272.74971008 24.50398254 C-269.16053391 28.09144793 -265.59006934 31.69701457 -262.02284527 35.3062911 C-258.28210682 39.08471662 -254.5241964 42.84598649 -250.76812744 46.60916138 C-243.66967362 53.72621129 -236.58664451 60.85840672 -229.50912118 67.99626458 C-221.44596518 76.12664877 -213.36562165 84.23985927 -205.2838378 92.35172057 C-188.67012261 109.02803215 -172.07794939 125.72563846 -155.5 142.4375 C-151.65928585 140.86334573 -149.06389185 138.27920133 -146.19325256 135.37799072 C-145.4093757 134.59773549 -145.4093757 134.59773549 -144.60966295 133.80171752 C-142.86006825 132.05775772 -141.11771238 130.30674211 -139.37524414 128.55566406 C-138.12212104 127.30361393 -136.8685651 126.05199688 -135.61460876 124.80078125 C-132.20919566 121.40021853 -128.81007113 117.99343272 -125.41215825 114.58537769 C-121.85434625 111.01878292 -118.29126398 107.45746045 -114.72886658 103.89544678 C-108.74429578 97.90993909 -102.76361194 91.92056977 -96.78540039 85.92871094 C-89.8791487 79.00675143 -82.96770244 72.09001428 -76.05322558 65.17627168 C-68.68865116 57.81237366 -61.32789463 50.44466842 -53.96824718 43.07584667 C-51.84984482 40.95531577 -49.73073519 38.83549387 -47.61146736 36.71582794 C-44.27586557 33.37921893 -40.94283556 30.04006132 -37.61174965 26.69894409 C-36.39077692 25.47505908 -35.16896705 24.25200854 -33.9462471 23.02986908 C-32.27308123 21.35719684 -30.60303795 19.68146611 -28.93373108 18.00494385 C-28.21260804 17.28614371 -28.21260804 17.28614371 -27.47691685 16.55282235 C-25.12789345 14.18709203 -22.90673862 11.7659509 -20.79149532 9.19231796 C-18.7468272 6.73423375 -17.15124633 5.23814146 -14.4375 3.625 C-13.78652344 3.22667969 -13.13554688 2.82835937 -12.46484375 2.41796875 C-8.42055156 0.39984283 -4.48841714 0.16679929 0 0 Z " fill="#790300" transform="translate(528.5,323.5625)"/>
<path d="M0 0 C6.69529866 5.49719258 12.73696491 11.60953152 18.83984375 17.7421875 C19.97305199 18.87726406 21.10648362 20.01211763 22.24012756 21.14675903 C25.20308335 24.11350744 28.16302193 27.08324802 31.12231445 30.0536499 C34.15066856 33.0922886 37.18190499 36.12804909 40.21289062 39.1640625 C46.14473089 45.1065826 52.07338261 51.052271 58 57 C56.17489258 60.94386162 53.6123541 63.66066259 50.546875 66.68359375 C50.00903381 67.22097672 49.47119263 67.75835968 48.91705322 68.31202698 C47.77958673 69.44647826 46.63969662 70.57850399 45.49755859 71.70825195 C43.76476916 73.42288558 42.04001589 75.14528454 40.31640625 76.86914062 C39.20619773 77.97442918 38.09553489 79.07926162 36.984375 80.18359375 C36.47477234 80.69208359 35.96516968 81.20057343 35.44012451 81.72447205 C32.95576518 84.17672133 30.43291113 86.51418218 27.74023438 88.73730469 C25.41570863 90.65673667 23.61122737 92.46551274 21.75 94.8125 C20.296875 96.64453125 20.296875 96.64453125 19 98 C18.34 98 17.68 98 17 98 C17 98.66 17 99.32 17 100 C15.57716084 101.40562439 15.57716084 101.40562439 13.58161926 103.05444336 C8.72093371 107.19151656 4.2131509 111.62454408 -0.3059082 116.12890625 C-1.64642494 117.45956619 -1.64642494 117.45956619 -3.01402283 118.81710815 C-5.94644386 121.72872842 -8.87374819 124.645465 -11.80078125 127.5625 C-12.81480537 128.57246982 -13.82886083 129.58240817 -14.84294701 130.59231567 C-19.60231784 135.33270044 -24.3593187 140.07544766 -29.11339027 144.82114697 C-34.58365283 150.28161278 -40.06212169 155.73367112 -45.54759723 161.17885303 C-49.80279782 165.40387283 -54.05027334 169.63655996 -58.29206532 173.87504101 C-60.81962056 176.40025139 -63.35034004 178.92208092 -65.88930702 181.43582153 C-68.71767494 184.23652914 -71.52997139 187.05304249 -74.34106445 189.87109375 C-75.17797821 190.69519745 -76.01489197 191.51930115 -76.87716675 192.36837769 C-82.15804321 197.69708397 -85.5187802 201.81527491 -86.3984375 209.46484375 C-86.39070313 210.61082031 -86.38296875 211.75679687 -86.375 212.9375 C-86.38273437 214.08089844 -86.39046875 215.22429687 -86.3984375 216.40234375 C-85.35104866 225.85964885 -81.06628065 230.64528462 -74.47705078 237.09057617 C-73.60682281 237.96153427 -72.73659485 238.83249237 -71.83999634 239.72984314 C-69.46444112 242.10252315 -67.07838104 244.4635951 -64.6868577 246.82011199 C-62.17911376 249.29643494 -59.68567805 251.78708343 -57.19064331 254.27619934 C-52.46446799 258.98686446 -47.72570641 263.68465199 -42.98221862 268.37787658 C-37.60066619 273.70362057 -32.23322193 279.04348606 -26.86697412 284.38464391 C-17.68900773 293.51922518 -8.50061599 302.64318176 0.69970703 311.75524902 C4.4752197 315.49485662 8.24653031 319.23823831 12 323 C12.76218338 323.76218338 13.52436676 324.52436676 14.30964661 325.30964661 C28.5397644 339.5397644 42.7698822 353.7698822 57 368 C56.03878393 369.12610812 55.07690561 370.25165098 54.11474609 371.37695312 C53.31138321 372.31722351 53.31138321 372.31722351 52.49179077 373.27648926 C48.7524588 377.59665194 44.63727443 381.48951516 40.29638672 385.19750977 C35.8718492 389.05240445 31.74778163 393.15933824 27.6328125 397.33984375 C26.07304506 398.91223675 24.51314552 400.48449871 22.953125 402.05664062 C20.52186969 404.5128712 18.09225729 406.9706879 15.66503906 409.4309082 C13.30443461 411.82152835 10.93780197 414.20604474 8.5703125 416.58984375 C7.4750676 417.70527809 7.4750676 417.70527809 6.35769653 418.84324646 C5.34556595 419.86044518 5.34556595 419.86044518 4.31298828 420.89819336 C3.7197879 421.49885117 3.12658752 422.09950897 2.51541138 422.71836853 C1 424 1 424 -1 424 C-2.35721588 422.62277985 -2.35721588 422.62277985 -3.96838379 420.66271973 C-8.53794755 415.2949253 -13.51074308 410.36441168 -18.50585938 405.39648438 C-19.54993199 404.35433502 -20.59377414 403.31195474 -21.6374054 402.2693634 C-23.87087347 400.03903677 -26.10588054 397.81026845 -28.34211731 395.5827179 C-31.88430497 392.05414698 -35.42259093 388.52168058 -38.96032715 384.98864746 C-46.47058212 377.48945384 -53.98506516 369.99450349 -61.5 362.5 C-69.61531007 354.40675357 -77.72987187 346.31276521 -85.83954668 338.21387148 C-89.35027334 334.70810111 -92.86341721 331.20477734 -96.37848663 327.70336151 C-98.57103034 325.51832195 -100.76145997 323.33117223 -102.95134544 321.14346886 C-103.96020535 320.13646735 -104.96992236 319.13032362 -105.98060036 318.12514687 C-111.00809351 313.12414011 -115.9309325 308.10072066 -120.51766205 302.68926239 C-122.98539003 299.87705613 -125.72398321 297.37751966 -128.5 294.875 C-129.06750977 294.36074463 -129.63501953 293.84648926 -130.21972656 293.31665039 C-131.32642636 292.31582678 -132.43473986 291.3167837 -133.54492188 290.31982422 C-134.74126389 289.23468581 -135.91327142 288.12277877 -137.078125 287.00390625 C-142.17327795 282.2301765 -147.56676893 280.43695668 -154.4375 279.5625 C-164.9939235 280.85890289 -171.23830945 286.39020675 -178.46337891 293.7980957 C-179.46533845 294.80339162 -180.46863829 295.80735317 -181.47315979 296.81008911 C-184.17868155 299.51814442 -186.86543033 302.24414474 -189.54918337 304.97375131 C-192.37295514 307.83902131 -195.2143857 310.68667064 -198.05404663 313.53617859 C-203.4287166 318.9346016 -208.78834216 324.34769652 -214.14226282 329.76669043 C-221.98667105 337.70512031 -229.8533691 345.62141282 -237.72029686 353.53751659 C-238.88599708 354.7105663 -240.05169042 355.88362285 -241.21737671 357.0566864 C-241.78703073 357.62989016 -242.35668475 358.20309392 -242.94360101 358.7936675 C-246.30916884 362.18121275 -249.67036812 365.57301709 -253.0276072 368.9688164 C-255.1232224 371.08797952 -257.22083084 373.20516299 -259.31872368 375.32207108 C-260.74076156 376.75851836 -262.16004109 378.19769473 -263.57920837 379.63697815 C-267.99997722 384.09511389 -272.46568496 388.41379768 -277.25112724 392.48031998 C-280.43343763 395.2455832 -283.37654671 398.25398559 -286.34375 401.24609375 C-286.99831177 401.90207047 -287.65287354 402.55804718 -288.32727051 403.23390198 C-290.38723823 405.29940145 -292.44367366 407.36837595 -294.5 409.4375 C-295.9086205 410.85114434 -297.31747267 412.26455786 -298.7265625 413.67773438 C-302.15372133 417.11583149 -305.57772019 420.55704656 -309 424 C-312.85308766 422.42476254 -315.44743914 419.82252556 -318.31933594 416.90771484 C-318.83685928 416.39048355 -319.35438263 415.87325226 -319.8875885 415.34034729 C-321.59130289 413.63524329 -323.28782978 411.92317232 -324.984375 410.2109375 C-326.16649407 409.025087 -327.34905645 407.83967826 -328.53204346 406.6546936 C-331.64028728 403.53882362 -334.74247737 400.41699366 -337.84344482 397.29388428 C-341.01048502 394.10636381 -344.18321387 390.9245168 -347.35546875 387.7421875 C-353.57589403 381.50033024 -359.78993537 375.25216515 -366 369 C-364.64929362 364.97745636 -362.94994052 362.57863492 -359.95263672 359.59619141 C-359.11771698 358.75827057 -358.28279724 357.92034973 -357.4225769 357.05703735 C-356.5174234 356.16423065 -355.6122699 355.27142395 -354.6796875 354.3515625 C-353.28074753 352.95543228 -353.28074753 352.95543228 -351.85354614 351.53109741 C-349.87921908 349.56136628 -347.90009812 347.596634 -345.91699219 345.63574219 C-343.39551 343.14238551 -340.88263547 340.64058318 -338.37293816 338.13537025 C-335.95748356 335.72511854 -333.53739469 333.3195402 -331.1171875 330.9140625 C-329.77767532 329.58092514 -329.77767532 329.58092514 -328.41110229 328.22085571 C-323.96858684 323.82832857 -319.47612592 319.55711367 -314.72428894 315.49971008 C-311.83266023 312.98469961 -309.13617389 310.28118878 -306.4375 307.5625 C-305.91220703 307.04107422 -305.38691406 306.51964844 -304.84570312 305.98242188 C-302.17131595 303.30150384 -299.61916282 300.57203423 -297.17871094 297.67651367 C-291.41623431 291.06959512 -285.10268329 284.98003371 -278.89453125 278.796875 C-277.52384342 277.42805605 -276.15337903 276.05901334 -274.78312683 274.6897583 C-271.19485174 271.10527907 -267.6035849 267.52381222 -264.01165771 263.94299316 C-260.35556439 260.29714839 -256.70231362 256.64845774 -253.04882812 253 C-247.15262698 247.11256464 -241.25469706 241.22686791 -235.35452271 235.34341431 C-233.90283808 233.89578707 -232.45140806 232.44790453 -231 231 C-229.86246529 229.90271576 -229.86246529 229.90271576 -228.70195007 228.78326416 C-224.6797144 224.56885809 -223.25552777 218.08072611 -222.5625 212.4375 C-222.7790625 210.7359375 -222.7790625 210.7359375 -223 209 C-223.10779785 207.99791504 -223.10779785 207.99791504 -223.21777344 206.97558594 C-225.13226347 197.26315157 -232.84458059 191.36228691 -239.6875 184.8125 C-240.95663988 183.56995255 -242.22423185 182.325822 -243.49023438 181.08007812 C-248.98786168 175.69484708 -254.54864179 170.43356471 -260.39526367 165.42651367 C-262.89480982 163.20456812 -265.09017075 160.74548353 -267.3125 158.25 C-272.6283104 152.37714359 -278.15320271 146.72993454 -283.75 141.125 C-284.54188721 140.32868164 -285.33377441 139.53236328 -286.1496582 138.71191406 C-289.60834632 135.26154444 -293.07829968 131.88157806 -296.79296875 128.70703125 C-302.08545913 124.14957245 -306.97406568 119.17523228 -311.90014648 114.23022461 C-313.5592732 112.56573723 -315.22368051 110.90666553 -316.88867188 109.24804688 C-321.9258076 104.21378032 -326.86699387 99.14639079 -331.49487305 93.7277832 C-333.90787396 90.95782254 -336.50635163 88.38647326 -339.125 85.8125 C-339.87330078 85.0709668 -339.87330078 85.0709668 -340.63671875 84.31445312 C-341.62676147 83.3334578 -342.61771534 82.35338109 -343.60961914 81.37426758 C-345.74947333 79.2592124 -347.87405995 77.12903458 -350 75 C-351.40225744 73.59756995 -352.80461051 72.19523551 -354.20703125 70.79296875 C-358.47135417 66.52864583 -362.73567708 62.26432292 -367 58 C-365.64368172 54.97125541 -364.12353234 52.8748059 -361.77880859 50.53588867 C-361.12407562 49.87807907 -360.46934265 49.22026947 -359.79476929 48.54252625 C-359.0864798 47.84142227 -358.37819031 47.1403183 -357.6484375 46.41796875 C-356.91557526 45.68556473 -356.18271301 44.95316071 -355.42764282 44.19856262 C-353.87486171 42.64880153 -352.31965197 41.10147055 -350.76220703 39.55639648 C-348.39956172 37.21187332 -346.04488265 34.85958252 -343.69140625 32.50585938 C-342.17755167 30.99692583 -340.66324283 29.48844785 -339.1484375 27.98046875 C-338.4522934 27.28543747 -337.75614929 26.59040619 -337.03890991 25.87431335 C-333.08028244 21.95317658 -329.02780976 18.19928377 -324.7961731 14.5737915 C-321.89875572 12.03509918 -319.20027925 9.30755429 -316.5 6.5625 C-315.96375 6.02173828 -315.4275 5.48097656 -314.875 4.92382812 C-313.58095964 3.61823383 -312.29011826 2.30947004 -311 1 C-305.21110548 5.77097883 -299.92742939 10.95259159 -294.64737701 16.27745819 C-293.11099647 17.82675257 -291.57138193 19.37276933 -290.03094482 20.91802979 C-286.76778716 24.19253031 -283.50861387 27.47097853 -280.25 30.75 C-276.45737059 34.5662699 -272.66310439 38.38088293 -268.86461639 42.19132233 C-267.34975773 43.71264989 -265.83794626 45.23696148 -264.32623291 46.76141357 C-262.94900055 48.14360077 -262.94900055 48.14360077 -261.54394531 49.55371094 C-260.73677063 50.36612244 -259.92959595 51.17853394 -259.09796143 52.01556396 C-256.96390089 54.14596447 -256.96390089 54.14596447 -254 56 C-254 56.66 -254 57.32 -254 58 C-253.40854691 58.26558086 -252.81709381 58.53116173 -252.2077179 58.8047905 C-249.93652844 60.0343621 -248.48050714 61.28766752 -246.67651367 63.12335205 C-246.04046707 63.76532028 -245.40442047 64.40728851 -244.74909973 65.06871033 C-244.06232651 65.77210037 -243.37555328 66.47549042 -242.66796875 67.20019531 C-241.93563522 67.94187454 -241.2033017 68.68355377 -240.44877625 69.44770813 C-238.85835506 71.05913211 -237.27010785 72.67270396 -235.68377686 74.2881546 C-233.16592494 76.8500777 -230.64018474 79.4039628 -228.11181641 81.95550537 C-220.92326674 89.21119493 -213.74266991 96.47459195 -206.58349609 103.75927734 C-202.20232122 108.2161062 -197.8063485 112.65788034 -193.40078735 117.09059906 C-191.7303882 118.77702812 -190.06554316 120.46897851 -188.40658569 122.16666412 C-174.32764807 137.34624445 -174.32764807 137.34624445 -155.25 143.5625 C-145.81392645 142.97868538 -138.34498624 138.90587471 -132.02218151 131.84899235 C-131.56151444 131.32446696 -131.10084738 130.79994158 -130.6262207 130.25952148 C-123.34708133 122.18444379 -115.67231951 114.52725323 -107.98046875 106.84765625 C-106.46724656 105.33375841 -104.95417266 103.81971233 -103.4412384 102.30552673 C-100.29553323 99.15835954 -97.14805784 96.01297691 -93.99926758 92.86889648 C-89.97692162 88.85227657 -85.95912297 84.83114254 -81.94262218 80.80867863 C-78.829391 77.69182637 -75.71377285 74.57736888 -72.5974369 71.46362114 C-71.11482824 69.98167593 -69.632952 68.49899757 -68.15184593 67.01555061 C-66.08305968 64.94420905 -64.01106817 62.87612602 -61.93823242 60.80883789 C-61.33705093 60.20563217 -60.73586945 59.60242645 -60.11647034 58.98094177 C-56.7349493 55.61606588 -53.26341447 52.44817828 -49.58029652 49.41492367 C-47.87831377 47.89104784 -46.4531149 46.26059281 -45 44.5 C-41.80835231 40.75902732 -38.31017352 37.43939247 -34.6875 34.125 C-26.92630325 27.01082599 -19.49342791 19.58025359 -12.0625 12.125 C-11.46658051 11.52721741 -10.87066101 10.92943481 -10.25668335 10.3135376 C-6.83440014 6.87905111 -3.41575323 3.44098035 0 0 Z " fill="#FBFAFA" transform="translate(530,388)"/>
<path d="M0 0 C1.04199554 -0.00365067 2.08399109 -0.00730133 3.15756226 -0.01106262 C6.57119501 -0.01910964 9.98434435 -0.00560834 13.39794922 0.0090332 C15.7858785 0.00955243 18.1738082 0.0090323 20.56173706 0.00752258 C25.55294216 0.00761204 30.54398486 0.01798888 35.53515625 0.03613281 C41.92162427 0.05884342 48.30785579 0.05935664 54.6943531 0.05261517 C59.62037241 0.04926883 64.54633813 0.05591744 69.47234726 0.0657444 C71.82699172 0.06958335 74.18164216 0.07075005 76.53628922 0.06915855 C79.82899528 0.06878634 83.12140162 0.08145142 86.4140625 0.09765625 C87.86217316 0.09394012 87.86217316 0.09394012 89.33953857 0.09014893 C98.43500204 0.16133134 106.79894721 1.60329152 113.77685547 7.9074707 C121.39074505 16.00068506 120.40303437 26.39777865 120.41357422 36.8605957 C120.42001424 38.36980816 120.42674346 39.87901942 120.43374634 41.38822937 C120.44567566 44.54270315 120.44943167 47.69706778 120.44824219 50.8515625 C120.44803924 54.86597358 120.47533478 58.87967482 120.50978661 62.89391804 C120.53217679 66.00918199 120.53607605 69.12427836 120.53502274 72.23961449 C120.53736076 73.71819694 120.54608117 75.19678531 120.56168747 76.67528725 C120.65211446 86.12637609 120.63858288 95.99967954 114.21029663 103.57197571 C107.73627687 109.97549472 99.91375216 111.69820792 91.0247345 111.77890015 C89.53993843 111.76979111 89.53993843 111.76979111 88.02514648 111.76049805 C86.42330002 111.76838348 86.42330002 111.76838348 84.78909302 111.77642822 C81.28225795 111.78956037 77.77588213 111.78091329 74.26904297 111.77075195 C71.81721409 111.77277478 69.36538579 111.77568795 66.91355896 111.77944946 C61.78354139 111.78386377 56.6536809 111.7774709 51.52368164 111.76342773 C44.96581022 111.74634571 38.40830744 111.75617685 31.85044956 111.77414513 C26.78966015 111.78501469 21.72895731 111.78152188 16.66816521 111.77376175 C14.25097548 111.77176805 11.83377775 111.77418967 9.41659737 111.78120041 C6.03069534 111.78886599 2.64538011 111.77713837 -0.74047852 111.76049805 C-1.72831833 111.76657074 -2.71615814 111.77264343 -3.7339325 111.77890015 C-11.25068527 111.71087084 -19.09397506 110.80409318 -25.29736328 106.18481445 C-31.488515 99.55143762 -33.03865267 92.60400249 -33.06762695 83.68945312 C-33.07098557 83.03833054 -33.07434418 82.38720795 -33.07780457 81.71635437 C-33.08726477 79.57431097 -33.08925529 77.43234617 -33.09033203 75.2902832 C-33.0935484 73.7920173 -33.09691276 72.29375171 -33.10041809 70.79548645 C-33.1063973 67.65759555 -33.10825927 64.51973213 -33.10766602 61.38183594 C-33.10756455 57.37735122 -33.12120638 53.37304442 -33.13843822 49.3686018 C-33.14960327 46.27406518 -33.15158383 43.17957094 -33.15105629 40.08501625 C-33.15223002 38.60955506 -33.15661742 37.13409255 -33.16438866 35.65865135 C-33.22112186 23.77339036 -33.04811885 14.64392135 -24.29736328 5.68481445 C-17.36328791 0.27877634 -8.43577553 -0.06707263 0 0 Z " fill="#780200" transform="translate(718.92236328125,257.627685546875)"/>
<path d="M0 0 C0.67271146 -0.00297112 1.34542291 -0.00594224 2.03851956 -0.0090034 C4.27367339 -0.01761648 6.5087732 -0.01919231 8.74394226 -0.02069092 C10.35434583 -0.02532426 11.96474831 -0.03034961 13.57514954 -0.03573608 C17.93683721 -0.0488105 22.29850952 -0.05529507 26.66021371 -0.05974674 C29.38889727 -0.06268488 32.1175767 -0.06679101 34.84625816 -0.07125092 C43.3945696 -0.08491142 51.94287152 -0.09458573 60.49119312 -0.09845281 C70.33924158 -0.1029332 80.18715123 -0.12048635 90.0351575 -0.1494534 C97.66172165 -0.17110338 105.28824682 -0.18115882 112.91484135 -0.18249393 C117.46354884 -0.18353937 122.01212558 -0.18939189 126.56080055 -0.20731354 C130.84133964 -0.2238522 135.12165048 -0.22592177 139.40221024 -0.21717453 C140.96704026 -0.21640731 142.53188287 -0.22070505 144.09668159 -0.23063278 C160.70538352 -0.32976917 160.70538352 -0.32976917 167.96147156 3.14044189 C173.55108534 8.73005568 173.17293058 13.3749515 173.21147156 20.89044189 C173.24240906 22.37544189 173.24240906 22.37544189 173.27397156 23.89044189 C173.3277758 33.95183433 173.3277758 33.95183433 169.96147156 38.14044189 C162.24945952 43.57481324 152.85731512 42.71261973 143.87870789 42.67388916 C142.1531399 42.68095503 140.42757811 42.68970285 138.70202637 42.69999695 C134.03691361 42.72241901 129.37214124 42.71956911 124.70699525 42.71067548 C120.80760591 42.70555301 116.90827983 42.71286788 113.00889701 42.72014755 C103.8114726 42.73712178 94.61421424 42.73360341 85.41679382 42.71685791 C75.93317394 42.69991465 66.4500136 42.71580697 56.96644384 42.74808079 C48.81418449 42.77477122 40.66206826 42.78205489 32.50976962 42.77356571 C27.64482486 42.7686379 22.78015695 42.77084517 17.91524696 42.79135323 C13.34397568 42.80970342 8.77336691 42.80375999 4.20213127 42.77915382 C2.52597509 42.77414499 0.84976846 42.77763764 -0.82634735 42.79030228 C-3.1169668 42.80623999 -5.40540597 42.79127938 -7.69592285 42.76863098 C-9.61691945 42.76775152 -9.61691945 42.76775152 -11.57672405 42.76685429 C-16.149204 41.93946551 -17.76160899 40.38320072 -21.03852844 37.14044189 C-23.80471397 32.63939434 -23.40597449 27.46085326 -23.41352844 22.32794189 C-23.43802063 21.46362549 -23.46251282 20.59930908 -23.48774719 19.70880127 C-23.51493179 13.70553635 -22.4749456 9.1357814 -19.03852844 4.14044189 C-13.70237829 -0.33038661 -6.67191519 0.01657585 0 0 Z " fill="#770200" transform="translate(664.0385284423828,520.8595581054688)"/>
<path d="M0 0 C1.96856229 -0.00135025 3.93712426 -0.00329378 5.90568542 -0.00579834 C10.01829219 -0.00873471 14.13081165 -0.00450141 18.2434082 0.00488281 C23.47798813 0.01625373 28.71236237 0.00972328 33.9469347 -0.00226212 C38.00934863 -0.00954038 42.071715 -0.00716522 46.13413048 -0.00200653 C48.06236483 -0.0006853 49.9906037 -0.00226333 51.91883278 -0.00696564 C80.98637928 -0.06229391 80.98637928 -0.06229391 86.5259552 4.637146 C92.24702027 11.45846919 91.31058777 20.8583617 90.73046875 29.265625 C89.95707962 33.40918426 89.22624938 36.93389371 86.00598145 39.80097961 C76.72244742 45.77637378 60.63028827 43.57513498 50.01171875 43.56640625 C48.02119865 43.57030299 46.03067937 43.57463964 44.04016113 43.57939148 C39.88823742 43.58681123 35.73639882 43.5865928 31.58447266 43.58129883 C26.29597875 43.57550038 21.00783463 43.59246523 15.7193985 43.6156435 C11.61499029 43.63045757 7.51066495 43.63124231 3.40623474 43.62813377 C1.45762945 43.62864282 -0.49098099 43.63380108 -2.43955994 43.64394569 C-24.96757251 43.74689032 -24.96757251 43.74689032 -33.26953125 40.265625 C-35.36405456 37.88986908 -35.59279649 36.48011512 -36.26953125 33.265625 C-36.44613281 32.68167969 -36.62273438 32.09773437 -36.8046875 31.49609375 C-38.58817907 22.93833166 -38.43478369 11.4951725 -33.83203125 3.890625 C-24.60602733 -1.96001163 -10.50974745 -0.02553634 0 0 Z " fill="#790300" transform="translate(678.26953125,594.734375)"/>
<path d="M0 0 C0.33 0.99 0.66 1.98 1 3 C-6.29840547 10.48291572 -6.29840547 10.48291572 -10 13 C-10.66 12.67 -11.32 12.34 -12 12 C-8.04 8.04 -4.08 4.08 0 0 Z " fill="#842522" transform="translate(245,787)"/>
<path d="M0 0 C0 4.35637821 -2.27897057 6.05610053 -5.109375 9.19140625 C-7.24427494 11.23367623 -9.12212703 12.30233382 -12 13 C-8.19524578 8.43969176 -4.25030379 4.14910608 0 0 Z " fill="#811D1B" transform="translate(535,498)"/>
<path d="M0 0 C5.7987013 4.19480519 5.7987013 4.19480519 6.75 8 C6.8325 8.99 6.915 9.98 7 11 C7.62225605 12.68375165 8.27544365 14.35767228 9 16 C4.49583156 12.32993682 2.23209799 7.25091904 0 2 C0 1.34 0 0.68 0 0 Z " fill="#EA1B13" transform="translate(98,669)"/>
<path d="M0 0 C0.33 1.32 0.66 2.64 1 4 C-1.31 5.65 -3.62 7.3 -6 9 C-6.66 8.67 -7.32 8.34 -8 8 C-5.36 5.36 -2.72 2.72 0 0 Z " fill="#801614" transform="translate(254,778)"/>
<path d="M0 0 C0.33 0.99 0.66 1.98 1 3 C-0.98 4.98 -2.96 6.96 -5 9 C-5.99 8.67 -6.98 8.34 -8 8 C-5.36 5.36 -2.72 2.72 0 0 Z " fill="#7B100E" transform="translate(522,511)"/>
<path d="M0 0 C0 3.60573896 -0.81707462 4.41336566 -3 7.1875 C-3.556875 7.90292969 -4.11375 8.61835938 -4.6875 9.35546875 C-5.120625 9.89816406 -5.55375 10.44085938 -6 11 C-6.33 10.01 -6.66 9.02 -7 8 C-5.56640625 5.95703125 -5.56640625 5.95703125 -3.5625 3.8125 C-2.90378906 3.09707031 -2.24507813 2.38164062 -1.56640625 1.64453125 C-1.04949219 1.10183594 -0.53257813 0.55914062 0 0 Z " fill="#680100" transform="translate(109,425)"/>
<path d="M0 0 C-1.36125 0.6496875 -1.36125 0.6496875 -2.75 1.3125 C-5.43218449 2.70517271 -7.66139605 4.11112757 -10 6 C-10.66 5.67 -11.32 5.34 -12 5 C-4.50757576 -1.35227273 -4.50757576 -1.35227273 0 0 Z " fill="#650200" transform="translate(704,261)"/>
<path d="M0 0 C0 3.97054597 -1.3139381 5.16471244 -4 8 C-6.140625 8.6484375 -6.140625 8.6484375 -8 9 C-7.04270084 7.87411986 -6.08412105 6.7493285 -5.125 5.625 C-4.59132813 4.99851562 -4.05765625 4.37203125 -3.5078125 3.7265625 C-2.38567993 2.44163349 -1.20628025 1.20628025 0 0 Z " fill="#811916" transform="translate(346,687)"/>
<path d="M0 0 C0.99 0.33 1.98 0.66 3 1 C0.03 3.475 0.03 3.475 -3 6 C-3.66 5.67 -4.32 5.34 -5 5 C-3.35 3.35 -1.7 1.7 0 0 Z " fill="#7A0E0B" transform="translate(337,696)"/>
<path d="M0 0 C0.33 0.99 0.66 1.98 1 3 C-1.97 5.475 -1.97 5.475 -5 8 C-5.66 7.67 -6.32 7.34 -7 7 C-4.69 4.69 -2.38 2.38 0 0 Z " fill="#7A1615" transform="translate(361,672)"/>
</svg>
